# xmcd
#
# Track frame offsets:
#	150
#	14850
#	25500
#	39542
#
# Disc length: 721 seconds
#
# Revision: 0
# Processed by: cddbd v1.5.2PL0 Copyright (c) Steve Scherf et al.
# Submitted via: audiograbber 1.83.01
#
DISCID=2902cf04
DTITLE=Steen1 - Samaa Uudestaan [CDM)
DYEAR=2005
DGENRE=Hip-Hop
TTITLE0=Samaa Uudestaan
TTITLE1=Samaa Uudestaan (Celtic Frostström: Lievä Disko Huijaus Remix)
TTITLE2=Samaa Uudestaan (PJVM Remix)
TTITLE3=Samaa Uudestaan (DJPP Remix)
EXTD=TR.
EXTT0=
EXTT1=
EXTT2=
EXTT3=
PLAYORDER=
